<?xml version="1.0" encoding="UTF-8"?>
<svg version="1.1" xmlns="http://www.w3.org/2000/svg" width="612" height="612">
<path d="M0 0 C201.96 0 403.92 0 612 0 C612 201.96 612 403.92 612 612 C410.04 612 208.08 612 0 612 C0 410.04 0 208.08 0 0 Z " fill="#FEFEFE" transform="translate(0,0)"/>
<path d="M0 0 C2.79693264 0.0107293 5.59322327 0.00003351 8.39013672 -0.01269531 C22.581192 -0.02584308 36.63659174 0.32476277 50.11279297 5.26074219 C50.87398438 5.52113281 51.63517578 5.78152344 52.41943359 6.04980469 C55.68001755 7.18942626 58.41420856 8.33668592 61.30029297 10.26074219 C61.30029297 10.92074219 61.30029297 11.58074219 61.30029297 12.26074219 C62.16654297 12.36386719 63.03279297 12.46699219 63.92529297 12.57324219 C72.07965453 14.23431584 82.81538215 19.95225366 88.36279297 26.26074219 C90.47193954 29.52651752 91.81238903 32.67624633 93.30029297 36.26074219 C94.27879492 37.2817877 95.28009724 38.28135428 96.30029297 39.26074219 C97.18284352 40.82217778 98.06181235 42.38576003 98.92138672 43.95996094 C101.13981117 47.66152467 103.68326599 51.14848292 106.21484375 54.64111328 C108.21100021 57.44918011 109.80483278 59.80931614 110.30029297 63.26074219 C110.96029297 63.26074219 111.62029297 63.26074219 112.30029297 63.26074219 C112.63029297 65.24074219 112.96029297 67.22074219 113.30029297 69.26074219 C113.96029297 69.26074219 114.62029297 69.26074219 115.30029297 69.26074219 C120.17093582 82.35179809 121.97511791 95.39965879 123.30029297 109.26074219 C123.37231934 109.98197266 123.4443457 110.70320313 123.51855469 111.44628906 C124.42365941 120.90547365 124.39443726 130.39186293 124.42529297 139.88574219 C124.4324231 141.72023926 124.4324231 141.72023926 124.43969727 143.59179688 C124.43752197 144.75356445 124.43534668 145.91533203 124.43310547 147.11230469 C124.43197754 148.15209473 124.43084961 149.19188477 124.4296875 150.26318359 C124.30029297 153.26074219 124.30029297 153.26074219 123.70239258 156.56152344 C123.50335327 157.89763672 123.50335327 157.89763672 123.30029297 159.26074219 C124.7191819 160.70282513 124.7191819 160.70282513 126.73779297 161.63574219 C129.41644114 163.75723154 130.21015287 164.82390943 130.90966797 168.21386719 C131.37835855 190.24232443 128.83122724 229.2931965 113.30029297 246.26074219 C109.79760065 248.73920974 106.48107629 248.42154155 102.30029297 248.26074219 C102.15333984 250.18660156 102.15333984 250.18660156 102.00341797 252.15136719 C101.22527082 261.60351341 100.18302888 270.89633914 98.30029297 280.19824219 C98.05134277 281.42945801 98.05134277 281.42945801 97.79736328 282.68554688 C96.88833896 286.98778574 95.79115509 291.11428191 94.30029297 295.26074219 C93.64029297 295.26074219 92.98029297 295.26074219 92.30029297 295.26074219 C92.21779297 296.08574219 92.13529297 296.91074219 92.05029297 297.76074219 C91.30029297 301.26074219 91.30029297 301.26074219 89.30029297 304.51074219 C86.08122459 310.78691324 86.61984245 317.87372632 86.55029297 324.76074219 C86.52208923 326.16963235 86.49215574 327.578489 86.46044922 328.98730469 C86.39008204 332.41184096 86.33721712 335.83570924 86.30029297 339.26074219 C87.24662598 339.56254395 88.19295898 339.8643457 89.16796875 340.17529297 C92.11085756 341.19509684 93.84159696 342.13394961 96.17529297 344.13574219 C96.77083984 344.62816406 97.36638672 345.12058594 97.97998047 345.62792969 C99.30029297 347.26074219 99.30029297 347.26074219 99.30029297 351.26074219 C99.96029297 351.26074219 100.62029297 351.26074219 101.30029297 351.26074219 C101.97213914 353.3632608 102.63760265 355.46781982 103.30029297 357.57324219 C103.67154297 358.745 104.04279297 359.91675781 104.42529297 361.12402344 C105.30029297 364.26074219 105.30029297 364.26074219 105.30029297 367.26074219 C105.96029297 367.26074219 106.62029297 367.26074219 107.30029297 367.26074219 C107.49365234 367.91300781 107.68701172 368.56527344 107.88623047 369.23730469 C109.28669745 373.93788199 110.71238023 378.61915109 112.30029297 383.26074219 C112.96029297 383.26074219 113.62029297 383.26074219 114.30029297 383.26074219 C114.54779297 384.20949219 114.79529297 385.15824219 115.05029297 386.13574219 C116.52042432 389.81107057 116.90766981 389.70212775 120.30029297 391.26074219 C126.37377628 395.27955976 132.1284805 399.21880689 136.30029297 405.26074219 C136.30029297 405.92074219 136.30029297 406.58074219 136.30029297 407.26074219 C137.10466797 407.63199219 137.10466797 407.63199219 137.92529297 408.01074219 C140.30029297 409.26074219 140.30029297 409.26074219 143.11279297 411.19824219 C148.67251638 414.79571028 153.71487661 416.58876093 160.30029297 417.26074219 C160.30029297 417.92074219 160.30029297 418.58074219 160.30029297 419.26074219 C160.91904297 419.34324219 161.53779297 419.42574219 162.17529297 419.51074219 C164.30029297 420.26074219 164.30029297 420.26074219 165.55029297 422.32324219 C165.79779297 422.96261719 166.04529297 423.60199219 166.30029297 424.26074219 C166.96029297 424.26074219 167.62029297 424.26074219 168.30029297 424.26074219 C168.30029297 424.92074219 168.30029297 425.58074219 168.30029297 426.26074219 C168.83654297 426.52886719 169.37279297 426.79699219 169.92529297 427.07324219 C174.11279297 429.16699219 174.11279297 429.16699219 178.30029297 431.26074219 C178.30029297 431.92074219 178.30029297 432.58074219 178.30029297 433.26074219 C179.00154297 433.52886719 179.70279297 433.79699219 180.42529297 434.07324219 C183.46969483 435.33071252 186.35358961 436.78739051 189.30029297 438.26074219 C198.09205249 442.50503989 207.13991205 445.91611126 216.30029297 449.26074219 C216.30029297 449.92074219 216.30029297 450.58074219 216.30029297 451.26074219 C217.01056641 451.21433594 217.72083984 451.16792969 218.45263672 451.12011719 C221.74180935 451.28254547 223.8678922 452.15794347 226.86279297 453.51074219 C237.76904074 458.18673006 248.14697106 460.90050193 259.83691406 462.82250977 C266.7734664 463.96566546 273.5315912 465.33930427 280.30029297 467.26074219 C280.30029297 467.92074219 280.30029297 468.58074219 280.30029297 469.26074219 C280.83654297 469.34324219 281.37279297 469.42574219 281.92529297 469.51074219 C286.00313002 470.7984802 289.29689301 473.25734223 292.30029297 476.26074219 C292.36216797 477.59105469 292.36216797 477.59105469 292.42529297 478.94824219 C293.75330637 483.97572149 297.34449975 486.12199419 301.30029297 489.26074219 C301.96029297 489.92074219 302.62029297 490.58074219 303.30029297 491.26074219 C304.95029297 491.59074219 306.60029297 491.92074219 308.30029297 492.26074219 C308.30029297 509.75074219 308.30029297 527.24074219 308.30029297 545.26074219 C106.34029297 545.26074219 -95.61970703 545.26074219 -303.69970703 545.26074219 C-303.69970703 527.77074219 -303.69970703 510.28074219 -303.69970703 492.26074219 C-301.05970703 491.60074219 -298.41970703 490.94074219 -295.69970703 490.26074219 C-294.42481437 488.46147179 -294.42481437 488.46147179 -293.69970703 486.26074219 C-292.46220703 485.08511719 -292.46220703 485.08511719 -291.19970703 483.88574219 C-288.51987788 481.46984705 -288.51987788 481.46984705 -287.82470703 478.32324219 C-286.15476897 473.77729969 -283.8498489 471.70552881 -279.69970703 469.26074219 C-269.24966512 464.75855022 -257.95204498 463.10823367 -246.84036255 461.01126099 C-236.5296186 459.04518145 -227.09459737 456.37402714 -217.52929688 452.07910156 C-214.67601015 450.80285162 -211.77891934 449.63422794 -208.88720703 448.44824219 C-207.99388672 448.07054687 -207.10056641 447.69285156 -206.18017578 447.30371094 C-205.36162109 446.95953125 -204.54306641 446.61535156 -203.69970703 446.26074219 C-202.85021484 445.885625 -202.00072266 445.51050781 -201.12548828 445.12402344 C-198.69970703 444.26074219 -198.69970703 444.26074219 -194.69970703 444.26074219 C-194.69970703 443.60074219 -194.69970703 442.94074219 -194.69970703 442.26074219 C-193.54470703 441.84824219 -192.38970703 441.43574219 -191.19970703 441.01074219 C-187.50492924 439.63092252 -184.03534944 437.98234508 -180.53173828 436.17871094 C-178.30583379 435.06338566 -176.030021 434.13460993 -173.69970703 433.26074219 C-173.69970703 432.60074219 -173.69970703 431.94074219 -173.69970703 431.26074219 C-171.86376953 429.81542969 -171.86376953 429.81542969 -169.32470703 428.13574219 C-165.55484962 425.60303517 -162.12201312 422.93053749 -158.69970703 419.94824219 C-154.50056989 416.51138972 -151.40153383 415.53923088 -146.12158203 414.76855469 C-137.65720839 412.99376667 -131.95178077 405.62929471 -126.56762695 399.375 C-122.80763289 395.09636576 -118.83578097 391.79996579 -113.69970703 389.26074219 C-113.03970703 389.26074219 -112.37970703 389.26074219 -111.69970703 389.26074219 C-111.45220703 388.62136719 -111.20470703 387.98199219 -110.94970703 387.32324219 C-109.99953493 384.99532055 -108.99901672 382.73049077 -107.94970703 380.44824219 C-104.84380932 373.53056093 -102.3178395 366.37333539 -99.69970703 359.26074219 C-99.03970703 359.26074219 -98.37970703 359.26074219 -97.69970703 359.26074219 C-97.60496094 358.31714844 -97.60496094 358.31714844 -97.50830078 357.35449219 C-96.63304625 351.23692368 -94.90228237 347.49225686 -90.84423828 342.85449219 C-88.00283805 340.74285048 -85.09426603 340.16878118 -81.69970703 339.26074219 C-81.76901143 335.11587985 -81.85717813 330.97195721 -81.9621582 326.82788086 C-81.99522697 325.42076439 -82.02331407 324.01352102 -82.04614258 322.60620117 C-82.08002502 320.57253395 -82.13234921 318.54001084 -82.18798828 316.50683594 C-82.2272644 314.6765686 -82.2272644 314.6765686 -82.26733398 312.80932617 C-83.01616658 306.66348663 -86.01016222 301.5994163 -88.69970703 296.07324219 C-95.37272871 281.47497747 -98.27948805 263.32895903 -97.69970703 247.26074219 C-98.35970703 247.59074219 -99.01970703 247.92074219 -99.69970703 248.26074219 C-103.94388848 248.74121556 -105.94271957 248.84168605 -109.38720703 246.19824219 C-119.23036325 233.69477348 -120.35774222 217.86641739 -122.37939453 202.56591797 C-122.78081859 199.67701101 -123.28266915 196.8138689 -123.82470703 193.94824219 C-125.12078933 187.0142019 -125.87847732 180.25224252 -126.13720703 173.19824219 C-126.20705811 172.1885437 -126.20705811 172.1885437 -126.27832031 171.15844727 C-126.34054194 168.23581861 -126.28699195 165.94976816 -124.34399414 163.67016602 C-123.79880127 163.1483374 -123.2536084 162.62650879 -122.69189453 162.08886719 C-118.80154486 157.99815616 -119.10597751 154.20164775 -119.22387695 148.75561523 C-119.27777588 147.54043213 -119.3316748 146.32524902 -119.38720703 145.07324219 C-119.44348458 142.47176704 -119.49545391 139.87019567 -119.54345703 137.26855469 C-119.5591423 136.60617294 -119.57482758 135.9437912 -119.59098816 135.26133728 C-119.97635768 118.4909564 -119.72372584 101.60499479 -115.69970703 85.26074219 C-115.37245505 83.87282245 -115.04564746 82.48479787 -114.71923828 81.09667969 C-112.95806222 73.7470099 -110.985948 66.46586525 -108.69970703 59.26074219 C-108.03970703 59.26074219 -107.37970703 59.26074219 -106.69970703 59.26074219 C-106.69970703 57.94074219 -106.69970703 56.62074219 -106.69970703 55.26074219 C-106.03970703 55.26074219 -105.37970703 55.26074219 -104.69970703 55.26074219 C-104.43158203 54.12636719 -104.16345703 52.99199219 -103.88720703 51.82324219 C-103.29939453 50.05980469 -103.29939453 50.05980469 -102.69970703 48.26074219 C-101.70970703 47.93074219 -100.71970703 47.60074219 -99.69970703 47.26074219 C-99.32845703 46.20886719 -99.32845703 46.20886719 -98.94970703 45.13574219 C-97.12511012 40.93916928 -93.99460843 38.35750921 -90.69970703 35.26074219 C-89.90886719 34.41382812 -89.90886719 34.41382812 -89.10205078 33.54980469 C-87.69970703 32.26074219 -87.69970703 32.26074219 -85.69970703 32.26074219 C-85.69970703 31.60074219 -85.69970703 30.94074219 -85.69970703 30.26074219 C-83.71970703 29.76574219 -83.71970703 29.76574219 -81.69970703 29.26074219 C-81.69970703 28.60074219 -81.69970703 27.94074219 -81.69970703 27.26074219 C-79.86376953 25.78027344 -79.86376953 25.78027344 -77.32470703 24.07324219 C-74.52262247 22.18004908 -71.73986336 20.29042041 -69.02001953 18.28027344 C-68.17181641 17.65507813 -67.32361328 17.02988281 -66.44970703 16.38574219 C-65.68142578 15.81082031 -64.91314453 15.23589844 -64.12158203 14.64355469 C-61.30759637 13.03685965 -58.89922332 12.62138131 -55.69970703 12.26074219 C-55.69970703 11.60074219 -55.69970703 10.94074219 -55.69970703 10.26074219 C-38.22359145 0.66972864 -19.51775568 -0.08882577 0 0 Z " fill="#CACACA" transform="translate(303.69970703125,66.7392578125)"/>
</svg>
